<svg width="62" height="62" viewBox="0 0 62 62" fill="none" xmlns="http://www.w3.org/2000/svg">
<g clip-path="url(#clip0)">
<path d="M30.9999 22.7609L31.7668 39.1941L30.9999 60.9506L29.1835 62.0001H12.0894L9.06738 22.7609H30.9999Z" fill="#D1CFF1"/>
<path d="M52.9325 22.7609L49.9105 62.0001H32.8164L31 60.9506V22.7609H52.9325Z" fill="#7C83E7"/>
<path d="M12.0895 62.0001H2.42188C1.08427 62.0001 0 60.9158 0 59.5782V22.7609H12.0895V62.0001Z" fill="#5F55AE"/>
<path d="M59.5778 62.0001H49.9102V22.7609H61.9997V59.5782C61.9997 60.9158 60.9154 62.0001 59.5778 62.0001Z" fill="#3B3B72"/>
<path d="M31 12.8662L32.695 18.1678L31 24.5772H0V15.2881C0 13.95 1.08379 12.8662 2.42188 12.8662H31Z" fill="#8078BE"/>
<path d="M62 15.2881V24.5772H31V12.8662H59.5781C60.9162 12.8662 62 13.95 62 15.2881Z" fill="#5F55AE"/>
<path d="M31 21.2039L32.4329 38.6292L31 62.0003H29.1836V23.0203C29.1836 22.9319 29.1896 22.8459 29.2018 22.7611C29.3277 21.8796 30.0857 21.2039 31 21.2039Z" fill="#5F55AE"/>
<path d="M21.4023 38.2181C20.3992 38.2181 19.5859 39.0314 19.5859 40.0345V44.2246C19.5859 45.2278 20.3992 46.041 21.4023 46.041C22.4055 46.041 23.2188 45.2278 23.2188 44.2246V40.0345C23.2188 39.0313 22.4055 38.2181 21.4023 38.2181Z" fill="#5F55AE"/>
<path d="M32.8164 23.0203V62.0003H31V21.2039C31.9143 21.2039 32.6723 21.8796 32.7982 22.7611C32.8104 22.8459 32.8164 22.9319 32.8164 23.0203Z" fill="#3B3B72"/>
<path d="M40.5977 38.2181C39.5945 38.2181 38.7812 39.0314 38.7812 40.0345V44.2246C38.7812 45.2278 39.5945 46.041 40.5977 46.041C41.6008 46.041 42.4141 45.2278 42.4141 44.2246V40.0345C42.4141 39.0313 41.6008 38.2181 40.5977 38.2181Z" fill="#3B3B72"/>
<path d="M30.9996 0L33.1389 14.0638L30.9996 33.8215C30.3275 33.8215 29.7002 33.6168 29.1832 33.2548C28.6709 32.8939 28.2677 32.3805 28.0376 31.7556L26.6366 27.9424H15.4548C13.4034 27.9424 11.6827 26.5002 11.2516 24.5772C11.1838 24.2732 11.1475 23.9584 11.1475 23.6351V4.3073C11.1475 1.93266 13.0801 0 15.4548 0L30.9996 0Z" fill="#F7F9FA"/>
<path d="M50.8509 4.3073V23.6351C50.8509 23.9584 50.8146 24.2732 50.7468 24.5772C50.3169 26.5002 48.5961 27.9424 46.5448 27.9424H35.363L33.962 31.7556C33.7319 32.3805 33.3286 32.8939 32.8164 33.2548C32.814 33.256 32.8116 33.2584 32.8091 33.2596C32.2933 33.618 31.6684 33.8215 31 33.8215V0H46.5448C48.9195 0 50.8509 1.93266 50.8509 4.3073Z" fill="#D1CFF1"/>
<path d="M30.9999 7.28772L32.4127 12.8665L30.9999 20.0474L30.9962 20.0462L28.8953 20.7231C27.3646 21.2171 25.7892 20.0922 25.7565 18.4865L25.7093 16.2039L24.4427 14.4226C23.5215 13.123 24.0911 11.3175 25.5761 10.7752L27.7291 9.98811L29.1023 8.21772C29.5831 7.59772 30.2915 7.28772 30.9999 7.28772Z" fill="#FFD944"/>
<path d="M37.5536 14.4274L36.2833 16.2038L36.2434 18.4792C36.2155 20.0861 34.6401 21.2171 33.107 20.7243L31 20.0474V7.28772C31.7108 7.28772 32.4216 7.60014 32.9024 8.22256L34.2635 9.98811L36.4214 10.774C37.9102 11.3151 38.4784 13.1333 37.5536 14.4274Z" fill="#FF9E22"/>
</g>
<defs>
<clipPath id="clip0">
<rect width="62" height="62" fill="white"/>
</clipPath>
</defs>
</svg>
