<svg width="62" height="62" viewBox="0 0 62 62" fill="none" xmlns="http://www.w3.org/2000/svg">
<path d="M3.02734 0C1.35746 0 0 1.35746 0 3.02734V58.9727C0 60.6425 1.35746 62 3.02734 62H31L34.3906 19.9805L31 2.94657L17.0969 0H3.02734Z" fill="#F7F9FA"/>
<path d="M58.9727 0L31 3.10811V62H58.9727C60.6425 62 62 60.6425 62 58.9727V3.02734C62 1.35976 60.6527 0 58.9727 0Z" fill="#D1CFF1"/>
<path d="M14.3884 11.0598H9.70606C8.70291 11.0598 7.88965 10.2465 7.88965 9.24341C7.88965 8.24027 8.70291 7.427 9.70606 7.427H14.3884C15.3915 7.427 16.2048 8.24027 16.2048 9.24341C16.2048 10.2465 15.3915 11.0598 14.3884 11.0598Z" fill="#5F55AE"/>
<path d="M17.0908 0H30.9997L34.027 5.93359L30.9997 11.9096H25.6425C24.8324 11.9096 24.0816 11.4894 23.6577 10.7991L18.1383 1.81641L17.0908 0Z" fill="#5F55AE"/>
<path d="M62 3.02734V11.9096H31V0H58.9727C60.6537 0 62 1.35988 62 3.02734Z" fill="#3B3B72"/>
<path d="M35.3792 23.3105C35.0788 22.7911 35.0788 22.7911 35.0787 22.7911L35.0786 22.7912L35.0782 22.7914L35.0771 22.7921L35.0735 22.7941L35.0614 22.8013L35.0177 22.8272C34.9805 22.8495 34.9273 22.8817 34.8616 22.9226C34.7304 23.0043 34.5479 23.1215 34.3411 23.2644C33.9338 23.5457 33.406 23.9446 32.9917 24.3826C32.978 24.397 32.9652 24.412 32.953 24.4277C32.1674 25.4427 31.3535 27.0013 30.7282 28.2744C30.5195 28.6991 30.3266 29.1033 30.1613 29.4493C30.0778 29.6243 30.0013 29.7845 29.9335 29.9248C29.8304 30.1384 29.7488 30.3034 29.6887 30.4158C29.6859 30.4211 29.6832 30.4262 29.6805 30.431C28.5624 30.965 27.9385 31.7895 27.3427 32.577C27.261 32.685 27.1799 32.7922 27.098 32.8979L27.0872 32.9124C25.3588 35.2903 23.554 37.5834 21.741 39.8869C20.8305 41.0437 19.918 42.2031 19.012 43.3773C18.9914 43.404 18.9731 43.4323 18.9573 43.462C18.8582 43.6483 18.7573 43.8388 18.5632 44.2947C18.4657 44.5237 18.5197 44.789 18.6988 44.9617C18.878 45.1344 19.1452 45.1786 19.3704 45.0728C20.4015 44.5884 21.3502 44.1009 22.2302 43.6473C21.5707 44.9202 20.8712 46.2187 20.1717 47.4674L20.1716 47.4674L20.1655 47.4788C19.6979 48.3576 19.254 49.2355 18.8135 50.1069L18.8121 50.1096C18.3702 50.9837 17.9316 51.8514 17.4703 52.7181C17.3442 52.9552 17.3909 53.2472 17.5847 53.4331C17.7786 53.6189 18.0723 53.6534 18.3038 53.5174C18.7197 53.2732 19.0526 53.0072 19.3442 52.756C19.4496 52.6652 19.5449 52.5808 19.6353 52.5007C19.806 52.3494 19.9596 52.2134 20.1319 52.0782C20.3053 51.9465 20.4481 51.7735 20.543 51.6586L20.555 51.644C20.6712 51.5034 20.739 51.4242 20.8043 51.3716C20.825 51.3549 20.838 51.3471 20.8448 51.3437C20.8633 51.3467 20.9366 51.3648 21.0782 51.4712C21.2197 51.5776 21.4011 51.6161 21.5737 51.5762C21.7463 51.5363 21.8924 51.4223 21.973 51.2646C22.5279 50.1782 23.1064 49.0912 23.6877 47.9989L23.6888 47.9968C24.2653 46.9134 24.8446 45.8248 25.4014 44.7355C25.5806 44.4423 25.6936 44.2917 25.8189 44.1926C25.9278 44.1064 26.0892 44.0266 26.4266 43.9913L26.4266 43.9913L26.4322 43.9907C29.5394 43.6368 32.6104 42.9237 35.3177 41.2885L35.3177 41.2885L35.322 41.2859C38.1312 39.5565 40.0604 37.1248 40.1611 33.7195L40.1613 33.7018C40.1613 32.5392 40.0666 31.2877 39.8761 30.1211C39.7468 29.1409 39.8518 28.5423 40.1179 28.1125C40.3888 27.6751 40.8948 27.3007 41.8237 26.9259L43.2111 26.4045C43.4224 26.325 43.5713 26.1337 43.5963 25.9094C43.6213 25.685 43.5183 25.4656 43.3297 25.3415C42.3685 24.7093 41.853 24.4182 40.67 24.0477C40.3689 23.9534 40.0993 23.7591 39.7554 23.4917C39.7333 23.4746 39.7107 23.4569 39.6877 23.4389C39.3948 23.21 39.0236 22.92 38.5909 22.7585C38.5776 22.752 38.5617 22.7445 38.5432 22.736C38.4918 22.7125 38.4205 22.6821 38.3312 22.6492C38.1529 22.5836 37.9008 22.5071 37.5903 22.4564C36.9669 22.3545 36.1066 22.3565 35.148 22.7568C35.1242 22.7667 35.1011 22.7782 35.0788 22.7911L35.3792 23.3105ZM20.851 51.3415C20.851 51.3416 20.8496 51.3423 20.847 51.3427C20.8497 51.3415 20.851 51.3413 20.851 51.3415Z" fill="#FF6E30" stroke="#272E35" stroke-width="1.2" stroke-linecap="round" stroke-linejoin="round"/>
</svg>
