<svg width="62" height="62" viewBox="0 0 62 62" fill="none" xmlns="http://www.w3.org/2000/svg">
<path d="M40.8584 36.2131L25.786 21.1407C25.0768 20.4313 23.9266 20.4313 23.2174 21.1407L1.06619 43.2919C-0.875909 45.2338 -0.0431469 48.5397 2.5789 49.3364L10.3132 51.686L12.6627 59.4202V59.4201C13.4593 62.0429 16.7658 62.8744 18.7073 60.9329L40.8584 38.7816C41.5678 38.0724 41.5678 36.9225 40.8584 36.2131Z" fill="#FF3C7D"/>
<path d="M60.9337 43.2919L38.7825 21.1407C38.0732 20.4313 36.9231 20.4313 36.2138 21.1407L21.1414 36.2131C20.432 36.9225 20.432 38.0724 21.1414 38.7817L43.2926 60.933C45.2313 62.8718 48.5394 62.0465 49.3371 59.4202L51.6867 51.686L59.421 49.3364C60.6536 48.9618 61.5762 47.9922 61.889 46.7425C62.2018 45.4927 61.8447 44.2029 60.9337 43.2919Z" fill="#C2126A"/>
<path d="M30.9998 0.000854492L41.3905 26.26L30.9998 50.8579C16.9789 50.8579 5.57129 39.4502 5.57129 25.4295C5.57129 11.4087 16.9789 0.000854492 30.9998 0.000854492Z" fill="#85C882"/>
<path d="M56.4285 25.4295C56.4285 39.4503 45.0207 50.8579 31 50.8579V0.000854492C45.0207 0.000854492 56.4285 11.4086 56.4285 25.4295Z" fill="#00BAA0"/>
<path d="M31.0001 7.26599L38.0944 24.5816L31.0001 43.5925C20.9849 43.5925 12.8369 35.4445 12.8369 25.4293C12.8369 15.4141 20.9848 7.26599 31.0001 7.26599Z" fill="#F7F9FA"/>
<path d="M49.1632 25.4293C49.1632 35.4445 41.0152 43.5925 31 43.5925V7.26599C41.0152 7.26599 49.1632 15.414 49.1632 25.4293Z" fill="#D1CFF1"/>
<path d="M30.9999 24.6072L33.3813 26.1155L30.9999 29.1322L29.3701 30.3419C28.6328 30.8887 27.5983 30.8006 26.9629 30.1264L23.0819 25.9913C22.3953 25.2599 22.4317 24.1096 23.1631 23.423C23.8957 22.7364 25.0448 22.7727 25.7314 23.5053L28.5043 26.4599L30.9999 24.6072Z" fill="#85C882"/>
<path d="M38.6758 23.4336L31 29.132V24.607L36.5107 20.5167C37.316 19.9197 38.4542 20.088 39.0512 20.8933C39.6492 21.6985 39.4809 22.8367 38.6758 23.4336Z" fill="#00BAA0"/>
</svg>
