<svg width="16" height="64" viewBox="0 0 16 64" fill="none" xmlns="http://www.w3.org/2000/svg">
<path d="M7.2929 63.7071C7.68342 64.0976 8.31659 64.0976 8.70711 63.7071L15.0711 57.3431C15.4616 56.9526 15.4616 56.3195 15.0711 55.9289C14.6805 55.5384 14.0474 55.5384 13.6569 55.9289L8.00001 61.5858L2.34315 55.9289C1.95263 55.5384 1.31946 55.5384 0.928937 55.9289C0.538413 56.3195 0.538413 56.9526 0.928937 57.3431L7.2929 63.7071ZM8 39.2305L9 39.2305L8 39.2305ZM7 9.22262e-08L7 39.2305L9 39.2305L9 -9.22262e-08L7 9.22262e-08ZM7 39.2305L7.00001 63L9.00001 63L9 39.2305L7 39.2305Z" fill="#FF6E30"/>
</svg>
