<svg width="64" height="32" viewBox="0 0 64 32" fill="none" xmlns="http://www.w3.org/2000/svg">
<path fill-rule="evenodd" clip-rule="evenodd" d="M16.0007 26.5001H10.4619L6.30845 9.95035C6.11131 9.18906 5.69273 8.51603 5.077 8.19883C3.5404 7.40168 1.84717 6.76727 0 6.44731V5.81014H8.92256C10.154 5.81014 11.0776 6.76727 11.2315 7.87886L13.3865 19.8168L18.9226 5.81014H24.3075L16.0007 26.5001ZM27.386 26.5001H22.1551L26.4625 5.81014H31.6934L27.386 26.5001ZM38.461 11.5422C38.615 10.4278 39.5385 9.79066 40.616 9.79066C42.3093 9.63068 44.1537 9.95064 45.6931 10.745L46.6166 6.29038C45.0773 5.65321 43.3841 5.33325 41.8475 5.33325C36.7705 5.33325 33.0762 8.19912 33.0762 12.1766C33.0762 15.2024 35.693 16.7912 37.5401 17.7484C39.5385 18.7027 40.3082 19.3399 40.1543 20.2943C40.1543 21.7258 38.615 22.363 37.0783 22.363C35.2312 22.363 33.384 21.8858 31.6935 21.0887L30.7699 25.5461C32.6171 26.3405 34.6155 26.6604 36.4626 26.6604C42.1553 26.8176 45.6931 23.9545 45.6931 19.6571C45.6931 14.2453 38.461 13.9281 38.461 11.5422ZM64 26.5001L59.8466 5.81014H55.3853C54.4618 5.81014 53.5382 6.44731 53.2303 7.40168L45.5392 26.5001H50.9241L51.9989 23.477H58.6152L59.2309 26.5001H64ZM56.1549 11.3827L57.6915 19.1804H53.3841L56.1549 11.3827Z" fill="#003EA9"/>
</svg>
