<svg width="51" height="32" viewBox="0 0 51 32" fill="none" xmlns="http://www.w3.org/2000/svg">
<path d="M33.0898 3.4209H17.916V28.5755H33.0898V3.4209Z" fill="#FF5E00"/>
<path d="M19.4801 15.9978C19.4783 13.5751 20.0193 11.1837 21.0622 9.00462C22.1051 6.82553 23.6227 4.91581 25.5 3.42001C23.1749 1.56499 20.3825 0.411471 17.4421 0.0912756C14.5017 -0.228919 11.5319 0.297132 8.87211 1.60931C6.21229 2.92148 3.96979 4.96684 2.40089 7.51161C0.831994 10.0564 0 12.9979 0 16C0 19.0021 0.831994 21.9436 2.40089 24.4884C3.96979 27.0332 6.21229 29.0785 8.87211 30.3907C11.5319 31.7029 14.5017 32.2289 17.4421 31.9087C20.3825 31.5885 23.1749 30.435 25.5 28.58C23.6221 27.0837 22.1042 25.1733 21.0612 22.9934C20.0183 20.8135 19.4776 18.4212 19.4801 15.9978Z" fill="#EC0019"/>
<path d="M51.0002 16.0006C51.0001 19.0023 50.168 21.9434 48.5989 24.4877C47.0298 27.032 44.787 29.0769 42.127 30.3886C39.467 31.7003 36.497 32.2259 33.5566 31.9053C30.6161 31.5847 27.8239 30.4309 25.499 28.5757C27.3755 27.0789 28.8926 25.169 29.9357 22.9903C30.9789 20.8115 31.5209 18.4208 31.5209 15.9984C31.5209 13.576 30.9789 11.1852 29.9357 9.0065C28.8926 6.82776 27.3755 4.91793 25.499 3.42112C27.8239 1.56593 30.6161 0.412091 33.5566 0.0915053C36.497 -0.22908 39.467 0.296519 42.127 1.60822C44.787 2.91993 47.0298 4.96481 48.5989 7.50912C50.168 10.0534 51.0001 12.9945 51.0002 15.9962V16.0006Z" fill="#F79E1C"/>
</svg>
