<svg width="40" height="40" viewBox="0 0 40 40" fill="none" xmlns="http://www.w3.org/2000/svg">
<g clip-path="url(#clip0)">
<path fill-rule="evenodd" clip-rule="evenodd" d="M19.4778 0.00203846C20.262 0.00203846 21.0463 0.0066049 21.8305 0.0111713C23.399 0.0203042 24.9675 0.0294371 26.5359 0.00203846C28.0774 -0.0390595 28.8481 0.536312 28.6047 2.18023L28.5189 2.70994L28.5189 2.71C28.1423 5.03519 27.7706 7.32987 27.4689 9.66007C27.3472 10.5231 26.9416 10.8108 26.1303 10.8108H12.7847C11.9734 10.8108 11.5677 10.5231 11.4461 9.66007C11.1444 7.32981 10.7727 5.03505 10.396 2.7098L10.3103 2.18023C10.1074 0.700704 10.6753 0.00203846 12.1762 0.00203846C13.7988 0.0294371 15.4213 0.0203042 17.0439 0.0111713C17.8552 0.0066049 18.6665 0.00203846 19.4778 0.00203846ZM19.9754 19.4598C18.123 19.4598 16.2706 19.2644 14.5416 18.6004C13.6772 18.2879 12.9774 17.7801 12.8539 16.8035C12.7667 16.1358 12.6767 15.5843 12.6024 15.129C12.4298 14.0713 12.3419 13.5327 12.5708 13.2622C12.8084 12.9815 13.3874 12.9897 14.5672 13.0063C14.9964 13.0124 15.5052 13.0196 16.1059 13.0144C17.5172 12.9977 18.9285 13.0025 20.3398 13.0072H20.34C22.2218 13.0136 24.1037 13.02 25.9855 12.9754C27.4263 12.9363 27.7144 13.4441 27.5086 14.6941C26.85 18.5613 25.5327 19.4207 19.9754 19.4598ZM15.9691 34.6167C14.032 36.6739 11.8932 37.418 9.18948 35.5797C9.87551 39.0375 13.0635 41.051 16.1305 39.4315C18.6325 38.2059 20.4484 38.381 22.8697 39.4752C26.0981 40.9634 29.3668 38.8187 29.73 35.4922C27.6719 37.0679 25.6542 36.9803 23.7575 35.3171C23.566 35.1509 23.3776 34.9683 23.1888 34.7854L23.1887 34.7853C22.184 33.8119 21.17 32.8296 19.6413 34.2666C19.4334 34.4921 19.2255 34.298 19.0432 34.1279C19.0131 34.0998 18.9838 34.0725 18.9553 34.0477C17.7447 32.9535 16.8165 33.7413 15.9691 34.6167ZM20.256 22.7029C15.8315 22.6672 12.0216 21.5232 8.37556 19.7357C7.51525 19.3067 6.57301 18.7705 7.26945 17.8053C7.91863 16.9241 8.72657 17.3728 9.46964 17.7855C9.57062 17.8415 9.67041 17.897 9.76844 17.9483C14.9712 20.701 20.5018 21.2372 26.2781 19.6285C27.712 19.2353 29.0229 18.6275 30.3339 17.9483C30.404 17.9116 30.475 17.8733 30.5467 17.8346L30.5468 17.8346C31.3127 17.4217 32.1551 16.9676 32.7919 17.9483C33.3511 18.8196 32.5084 19.2832 31.7445 19.7034L31.6858 19.7357C28.0807 21.6304 24.2298 22.6672 20.256 22.7029ZM25.4791 32.3588C27.3722 32.0446 28.6892 30.4343 28.648 28.5884C28.6069 27.0174 27.578 25.6035 26.0552 25.1322C24.4502 24.6217 22.9686 24.8966 21.7339 26.1141C20.0054 27.8422 18.8942 27.8422 17.2068 26.1534C15.8487 24.818 14.2437 24.5038 12.5151 25.2893C10.7866 26.0748 9.9635 27.4887 10.375 29.2954C10.7043 31.102 11.939 32.2017 13.8733 32.3981C15.8076 32.5944 17.1657 31.7304 17.9888 30.0809C18.0735 29.9092 18.1227 29.7115 18.1723 29.5125C18.3156 28.9379 18.4615 28.3528 19.4704 28.3528C20.5089 28.3528 20.657 28.9039 20.8164 29.4969C20.8655 29.6795 20.9156 29.866 20.9931 30.0416C21.7339 31.7697 23.5448 32.7123 25.4791 32.3588ZM14.3671 25.7999C15.9722 25.8785 17.2891 27.2531 17.1657 28.8241C17.0834 30.3951 15.6018 31.6126 13.9967 31.4555C12.3917 31.3377 11.157 29.9238 11.3216 28.3528C11.4451 26.8996 12.8444 25.7214 14.3671 25.7999ZM24.5736 25.8392C26.1787 25.7999 27.578 27.096 27.578 28.667C27.6191 30.1987 26.2199 31.534 24.5736 31.534C22.9686 31.4948 21.6105 30.1201 21.6516 28.5884C21.7339 27.1352 23.0509 25.8785 24.5736 25.8392Z" fill="white"/>
</g>
<defs>
<clipPath id="clip0">
<rect width="40" height="40" fill="white"/>
</clipPath>
</defs>
</svg>
