<svg width="138" height="32" viewBox="0 0 138 32" fill="none" xmlns="http://www.w3.org/2000/svg">
<g clip-path="url(#clip0)">
<path d="M121.86 5.81554e-06C124.295 -0.00206858 126.699 0.550836 128.893 1.61764C129.228 1.77031 129.565 1.95207 129.9 2.13746L128.433 3.45337L126.234 1.16325L122.443 4.52574L120.211 2.11201L113.243 8.37897L117.706 13.2973L115.963 14.824L120.365 19.746L118.622 21.2728L124.922 28.274L128.656 24.8497L131.891 28.5176C131.221 29.0363 130.516 29.5064 129.781 29.9244C127.37 31.2852 124.654 31.9962 121.893 31.9891C113.059 31.9891 105.875 24.8206 105.875 15.9946C105.847 7.223 113.031 5.81554e-06 121.86 5.81554e-06ZM118.928 15.0058L122.748 11.5815L126.173 15.402L122.349 18.83L118.928 15.0058ZM121.645 21.6072L125.44 18.1756L128.893 21.9961L125.062 25.4023L121.648 21.6108L121.645 21.6072ZM116.207 8.49893L120.031 5.08918L123.456 8.9097L119.632 12.334L116.207 8.49893ZM123.208 6.68136L126.047 4.11133L128.617 6.954L125.781 9.53857L123.212 6.66682L123.208 6.68136ZM128.297 18.4301L131.14 15.8637L133.709 18.7354L130.866 21.3055L128.297 18.4301ZM130.812 24.2099L133.655 21.6399L136.203 24.4826L133.36 27.0817L130.812 24.2099ZM131.973 11.0035L133.871 9.29502L135.581 11.1889L133.684 12.9011L131.973 11.0035ZM129.53 5.35091L131.423 3.60968L133.138 5.53267L131.24 7.24481L129.53 5.35091ZM134.388 16.6598L136.282 14.9476L138 16.8415L136.074 18.5391L134.363 16.6452L134.388 16.6598ZM125.835 12.4103L128.678 9.84392L131.247 12.6866L128.405 15.2675L125.835 12.4249V12.4103ZM8.38422 11.0253H8.24047L5.53437 21.4254H3.32062L0 6.64865H2.29641L4.59281 17.674H4.73297L7.39953 6.64865H9.22156L12.0714 17.674H12.2188L14.3067 6.64865H16.7073L13.3867 21.4254H11.1694L8.38422 11.0253ZM19.6183 15.133H24.3117C24.2111 12.952 23.1653 12.0723 22.0584 12.0723C20.8078 12.0723 19.8447 13.0537 19.6183 15.133ZM25.9541 19.0517V20.6366C24.8491 21.2749 23.5968 21.606 22.3244 21.5963C18.878 21.5963 17.4656 19.4152 17.4656 16.1436C17.4656 12.9738 19.0433 10.6909 22.1195 10.6909C24.6819 10.6909 26.2595 12.3776 26.2595 15.7801V16.5507H19.5788C19.5788 19.0517 20.5814 20.1568 22.6909 20.1568C23.8014 20.1568 24.8256 19.7605 25.9505 19.0662L25.9541 19.0517ZM31.0284 19.9387C31.628 20.1798 32.2702 20.2937 32.9152 20.2731C34.4353 20.2731 35.5781 19.3134 35.5781 15.94C35.5781 13.2937 34.6366 12.4394 33.2637 12.4394C32.47 12.4539 31.696 12.6918 31.0284 13.1264V19.9241V19.9387ZM31.05 11.5779C31.8988 11.1019 32.8472 10.8365 33.8172 10.8036C36.358 10.8036 37.7344 12.5957 37.7344 15.9328C37.7344 19.826 35.8872 21.7271 32.9152 21.7271C31.5247 21.6874 30.1601 21.3374 28.9189 20.702V6.16154L31.05 5.63808V11.5706V11.5779ZM46.9595 18.2956H47.0781L51.4625 6.66319H54.0069V21.4145H51.7931V10.7054H51.6098L47.4087 21.4145H46.097L41.9175 10.9563H41.7306V21.4145H39.8906V6.64138H42.3703L46.9595 18.2956ZM63.0344 16.1363C63.0344 13.3227 61.9059 12.1377 60.5187 12.1377C59.1316 12.1377 58.0031 13.3227 58.0031 16.1363C58.0031 18.9499 59.0812 20.135 60.5187 20.135C61.9562 20.135 63.0344 18.9899 63.0344 16.1363ZM55.8469 16.1363C55.8469 12.5012 57.8127 10.6836 60.5187 10.6836C63.2248 10.6836 65.1906 12.5012 65.1906 16.1363C65.1906 19.6987 63.3255 21.589 60.5187 21.589C57.712 21.589 55.8469 19.6915 55.8469 16.1363ZM66.815 12.2213C68.3915 11.2495 70.1945 10.7177 72.0403 10.68C74.4984 10.68 75.422 11.6579 75.422 13.8026V21.3455H73.2909V14.2824C73.2909 12.6357 72.4931 12.3449 71.4473 12.3449C70.5624 12.392 69.7008 12.6485 68.9317 13.0937V21.3455H66.8042V12.2177L66.815 12.2213ZM79.9358 15.1294H84.6256C84.5286 12.9483 83.4792 12.0686 82.3723 12.0686C81.1217 12.0686 80.1586 13.0465 79.9322 15.1294H79.9358ZM86.25 19.0517V20.6366C85.1465 21.2753 83.8952 21.6064 82.6239 21.5963C79.1811 21.5963 77.7687 19.4152 77.7687 16.1436C77.7687 12.9738 79.3428 10.6909 82.4191 10.6909C84.9814 10.6909 86.5627 12.3776 86.5627 15.7801V16.5507H79.8891C79.8891 19.0517 80.8917 20.1568 83.0048 20.1568C84.1117 20.1568 85.1395 19.7605 86.2608 19.0662L86.25 19.0517ZM95.087 10.7054H97.2828L93.5705 21.0837C92.5427 23.9591 91.2956 25.4459 88.9381 25.4459V23.7628C90.3325 23.7628 91.1914 22.6359 91.6873 21.091L87.7342 10.6764H89.9911L92.6145 18.3428H92.7367L95.0727 10.6764L95.087 10.7054Z" fill="#006CB4"/>
</g>
<defs>
<clipPath id="clip0">
<rect width="138" height="32" fill="white"/>
</clipPath>
</defs>
</svg>
