<svg width="40" height="40" viewBox="0 0 40 40" fill="none" xmlns="http://www.w3.org/2000/svg">
<g clip-path="url(#clip0)">
<circle cx="19.5" cy="20.5" r="17.5" fill="white"/>
<path d="M18.5143 0C19.4857 0 20.4571 0 21.4286 0C21.4743 0.0971151 21.56 0.0571265 21.6286 0.0628392C22.7943 0.165667 23.9486 0.354185 25.0857 0.656955C36.0229 3.57612 42.3429 14.7729 39.1943 25.6327C36.2114 35.9097 25.4343 42.0508 15.0743 39.3659C6.86286 37.2465 0.948571 30.3628 0.0971429 21.9594C0.08 21.7995 0.125714 21.6224 0 21.4796C0 20.4913 0 19.4973 0 18.509C0.0971429 18.469 0.0571429 18.3776 0.0628571 18.3091C0.251429 16.2582 0.714286 14.2759 1.50857 12.3736C4.35429 5.51842 10.6457 0.851185 18.0343 0.0971151C18.1943 0.0799772 18.3714 0.125678 18.5143 0ZM31.1486 16.6067C31.1543 16.6695 31.16 16.7381 31.16 16.8009C31.1771 18.9832 31.2057 21.1597 31.2 23.3419C31.2 24.5873 31.2743 25.8326 31.2 27.078C31.1714 27.5921 30.9257 27.8549 30.4114 27.9292C30.1657 27.9634 29.92 27.9806 29.6743 27.9977C29.48 28.0149 29.3371 28.0606 29.3714 28.3062C29.4 28.5061 29.4629 28.6318 29.7143 28.609C30.2743 28.5576 30.8343 28.5119 31.3943 28.5176C32.5257 28.5233 33.6629 28.489 34.7886 28.609C35.0114 28.6318 35.0686 28.529 35.0914 28.3348C35.1086 28.1405 35.0629 28.0206 34.8457 28.0091C34.5886 27.992 34.3314 27.9749 34.08 27.9349C33.5829 27.8492 33.32 27.5578 33.24 27.0608C33.1886 26.7466 33.1943 26.4324 33.1829 26.124C33.0286 22.7192 32.8857 19.3145 32.92 15.9097C32.9257 15.6127 32.9486 15.3213 33.0057 15.03C33.0971 14.5787 33.3543 14.2873 33.8114 14.1674C34.1657 14.076 34.5257 14.0417 34.88 14.0074C35.0971 13.9903 35.04 13.8303 35.0343 13.7104C35.0286 13.5904 35.0343 13.4476 34.84 13.459C33.68 13.5333 32.52 13.5333 31.36 13.459C31.2514 13.4533 31.2114 13.4876 31.2 13.5961C31.12 14.333 30.8286 15.0071 30.52 15.6755C29.7543 17.3151 28.96 18.9374 28.1371 20.5484C27.3371 22.1251 26.6514 23.7589 25.76 25.2899C25.7029 25.3927 25.6629 25.5127 25.5486 25.587C25.4457 25.5241 25.4229 25.4156 25.3771 25.3299C24.8686 24.2959 24.3657 23.2619 23.8629 22.2279C22.8914 20.2342 21.8343 18.2862 20.9314 16.2639C20.5543 15.4127 20.1771 14.5558 20.1771 13.5961C20.1771 13.4704 20.1143 13.4647 20.0171 13.4704C18.8743 13.5333 17.7314 13.5447 16.5943 13.4647C16.3714 13.4476 16.3543 13.6133 16.3314 13.7618C16.3086 13.9103 16.3657 14.0131 16.5429 14.0246C16.8743 14.0531 17.1943 14.1388 17.52 14.2245C17.9371 14.3388 18.1543 14.6073 18.2286 15.0243C18.3257 15.5955 18.2571 16.1611 18.24 16.7324C18.1486 19.463 17.9943 22.1879 17.8114 24.9129C17.7657 25.6155 17.6743 26.3125 17.52 27.0037C17.4114 27.4779 17.1429 27.7749 16.6629 27.8892C16.4114 27.952 16.16 27.992 15.9029 28.0091C15.68 28.0263 15.6114 28.1462 15.64 28.3576C15.6686 28.5461 15.7486 28.6547 15.96 28.6147C16.12 28.5861 16.28 28.5804 16.4457 28.569C17.7657 28.4947 19.0914 28.4833 20.4114 28.6147C20.6286 28.6375 20.7486 28.569 20.7657 28.3576C20.7771 28.1634 20.6971 28.032 20.4743 28.0206C20.1886 28.0034 19.9029 27.992 19.6229 27.9463C19.1429 27.872 18.9543 27.6721 18.8571 27.1922C18.7771 26.7981 18.7771 26.3982 18.7771 25.9983C18.7829 23.0734 18.9543 20.16 19.1029 17.2408C19.1143 17.0009 19.1314 16.7609 19.1486 16.521C19.2457 16.5895 19.2914 16.6638 19.3257 16.7438C19.56 17.2865 19.7829 17.8292 20.0286 18.3662C21.0857 20.6512 22.16 22.9306 23.2171 25.2214C23.7143 26.3011 24.2857 27.3465 24.6514 28.4833C24.6971 28.6261 24.7314 28.7632 24.9143 28.7689C25.1086 28.7746 25.1657 28.6375 25.2286 28.4947C25.7371 27.3236 26.2629 26.164 26.84 25.0271C27.9314 22.8906 29.0457 20.7712 30.0686 18.6004C30.4 17.9263 30.7886 17.2808 31.1486 16.6067ZM2.30857 21.6338C2.68571 21.7081 3.06286 21.7824 3.44 21.8566C5.52571 22.2851 7.62286 22.5478 9.76 22.3365C11.3314 22.1822 12.8057 21.7881 14.1029 20.8398C14.3886 20.6284 14.6457 20.3942 14.8571 20.1085C15.4857 19.2345 15.6743 18.2462 15.5371 17.2065C15.3657 15.9155 14.76 14.8586 13.6286 14.1731C12.9143 13.7389 12.1086 13.5276 11.28 13.4247C9.85714 13.2534 8.42857 13.3162 7 13.3333C6.34286 13.339 5.68571 13.3962 5.03429 13.4305C4.61714 13.4533 4.49714 13.5333 4.50286 13.7903C4.50857 14.1388 4.79429 14.076 5.00571 14.1103C5.19429 14.1388 5.38286 14.1502 5.57143 14.1731C6.15429 14.2531 6.42857 14.5444 6.47429 15.1271C6.50286 15.447 6.52571 15.7726 6.53143 16.0983C6.53714 17.7378 6.54286 19.3716 6.53714 21.0111C6.53714 21.2339 6.59429 21.3139 6.82286 21.3082C7.26286 21.2968 7.69714 21.2968 8.13714 21.3082C8.37714 21.3139 8.43429 21.2339 8.43429 20.9997C8.42286 19.0003 8.42857 17.0009 8.42857 15.0014C8.42857 14.8301 8.42286 14.6587 8.44 14.4873C8.47429 14.2131 8.64 14.0646 8.92 14.0531C9.49143 14.036 10.0629 14.0131 10.6286 14.1217C11.9486 14.3673 12.8629 15.0871 13.2514 16.401C13.4229 16.9837 13.4514 17.5835 13.4229 18.1834C13.3371 19.8458 12.3657 21.0511 10.76 21.491C10.3543 21.5995 9.94286 21.6738 9.52571 21.7195C7.55429 21.9252 5.58857 21.8052 3.62286 21.6852C3.17714 21.651 2.74286 21.5653 2.30857 21.6338ZM8.16571 28.6832C8.16571 28.7118 8.16571 28.7346 8.16571 28.7632C8.88571 28.7632 9.61143 28.7461 10.3314 28.7689C10.5771 28.7746 10.6343 28.6661 10.6457 28.4776C10.6629 28.2833 10.6114 28.1577 10.3657 28.152C10.0514 28.1405 9.74286 28.0948 9.42857 28.0491C8.90857 27.9634 8.59429 27.6607 8.49714 27.1408C8.41714 26.7009 8.39429 26.2554 8.4 25.8041C8.40571 24.9643 8.4 24.1303 8.41143 23.2905C8.41143 23.0963 8.36571 23.022 8.16 23.0391C7.73143 23.0677 7.30286 23.0506 6.88 22.9934C6.48 22.9363 6.53143 22.942 6.52571 23.3019C6.50286 24.5587 6.56571 25.8155 6.41143 27.0608C6.34286 27.6093 6.06286 27.9292 5.53143 28.0434C5.29143 28.0948 5.04571 28.1291 4.8 28.1462C4.54286 28.1634 4.51429 28.3233 4.53143 28.5233C4.54857 28.7289 4.66286 28.7746 4.86286 28.7632C5.96 28.6947 7.06286 28.6547 8.16571 28.6832Z" fill="#F01010"/>
</g>
<defs>
<clipPath id="clip0">
<rect width="40" height="40" fill="white"/>
</clipPath>
</defs>
</svg>
