<svg width="158" height="24" viewBox="0 0 158 24" fill="none" xmlns="http://www.w3.org/2000/svg">
<path opacity="0.75" d="M0 0V24H23.9394L0 0Z" fill="#1565C0"/>
<path d="M23.9394 0H0V24L23.9394 0Z" fill="#1976D2"/>
<path d="M111.067 4.80127C107.498 4.80127 104.364 7.70007 104.364 11.2783V19.199H107.239V16.3172H114.897V19.199H117.771V11.2783C117.771 7.70007 114.637 4.80127 111.067 4.80127ZM114.897 13.441H107.239V11.2839C107.239 9.29671 109.085 7.68309 111.067 7.68309C113.049 7.68309 114.897 9.29671 114.897 11.2839V13.441Z" fill="#FF5722"/>
<path d="M150.803 4.80127C147.234 4.80127 144.1 7.70007 144.1 11.2783V19.199H146.975V16.3172H154.632V19.199H157.506V11.2783C157.506 7.70007 154.373 4.80127 150.803 4.80127ZM154.632 13.441H146.975V11.2839C146.975 9.29671 148.821 7.68309 150.803 7.68309C152.786 7.68309 154.632 9.29671 154.632 11.2839V13.441Z" fill="#FF5722"/>
<path d="M81.865 4.80127C77.9007 4.80127 74.6816 8.02279 74.6816 12.0029C74.6816 15.9775 77.895 19.2046 81.865 19.2046C85.8293 19.2046 89.0484 15.9832 89.0484 12.0029C89.0484 8.02279 85.8293 4.80127 81.865 4.80127ZM81.865 16.3172C79.4876 16.3172 77.5562 14.3809 77.5562 11.9973C77.5562 9.61375 79.4876 7.67742 81.865 7.67742C84.2429 7.67742 86.1741 9.61375 86.1741 11.9973C86.1741 14.3865 84.2429 16.3172 81.865 16.3172Z" fill="#1976D2"/>
<path d="M71.6375 11.2384C71.9933 10.61 72.1966 9.89099 72.1966 9.11531C72.1966 6.73172 70.2652 4.79541 67.8876 4.79541H62.2402V19.1932H69.3277C71.7053 19.1932 73.6367 17.2568 73.6367 14.8732C73.6311 13.3503 72.8348 12.0084 71.6375 11.2384ZM65.1091 7.67723H67.8876C68.6783 7.67723 69.3221 8.32267 69.3221 9.11531C69.3221 9.90795 68.6783 10.5534 67.8876 10.5534H65.1091V7.67723ZM69.3221 16.317H65.1091V13.4352H69.3221C70.1127 13.4352 70.7565 14.0806 70.7565 14.8732C70.7565 15.6659 70.1127 16.317 69.3221 16.317Z" fill="#1976D2"/>
<path d="M53.3798 4.80127C49.4153 4.80127 46.1963 8.02279 46.1963 12.0029C46.1963 15.9775 49.4097 19.2046 53.3798 19.2046C57.35 19.2046 60.5634 15.9832 60.5634 12.0029C60.5634 8.02279 57.3443 4.80127 53.3798 4.80127ZM53.3798 16.3172C51.0023 16.3172 49.0708 14.3809 49.0708 11.9973C49.0708 9.61375 51.0023 7.67742 53.3798 7.67742C55.7574 7.67742 57.6888 9.61375 57.6888 11.9973C57.6888 14.3865 55.7574 16.3172 53.3798 16.3172Z" fill="#1976D2"/>
<path d="M126.852 10.5875L126.869 10.5593H123.52C122.729 10.5593 122.086 9.91383 122.086 9.12119C122.086 8.32855 122.729 7.68309 123.52 7.68309H128.783L130.698 4.80127H123.514C121.137 4.80127 119.205 6.73758 119.205 9.12119C119.205 11.3519 120.888 13.1863 123.051 13.4127L123.035 13.441H126.383C127.174 13.441 127.818 14.0865 127.818 14.8791C127.818 15.6717 127.174 16.3172 126.383 16.3172H121.119L119.205 19.199H126.388C128.766 19.199 130.698 17.2627 130.698 14.8791C130.698 12.6484 129.009 10.814 126.852 10.5875Z" fill="#FF5722"/>
<path d="M135.482 4.80127C133.104 4.80127 131.173 6.73758 131.173 9.12119C131.173 11.3519 132.856 13.1863 135.018 13.4127L135.002 13.441H138.351C139.141 13.441 139.785 14.0865 139.785 14.8791C139.785 15.6717 139.141 16.3172 138.351 16.3172H133.087L131.173 19.199H138.356C140.733 19.199 142.665 17.2627 142.665 14.8791C142.665 12.6484 140.982 10.814 138.819 10.5875L138.837 10.5593H135.488C134.697 10.5593 134.053 9.91383 134.053 9.12119C134.053 8.32855 134.697 7.68309 135.488 7.68309H140.751L142.665 4.80127H135.482Z" fill="#FF5722"/>
<path d="M102.783 4.80127L96.9102 11.0688L102.93 19.1933H99.5811L95.0015 13.1013L93.838 14.4941V19.1877H90.9629V4.80127H93.838V10.48L99.0161 4.80127H102.783Z" fill="#FF5722"/>
<path d="M36.3863 19.199H33.5117V4.80127H40.2773C41.4858 4.80127 42.525 5.21458 43.4004 6.04685C44.2927 6.89045 44.9873 8.13039 45.0042 9.35895C45.0155 10.4743 44.7501 11.3801 44.0442 12.2408C43.3721 13.073 42.6888 13.7015 41.6497 13.9223L45.2414 19.199H41.8925L38.5154 14.2167C38.3798 14.0298 38.1652 13.9223 37.9336 13.9223H36.3863V19.199ZM36.3863 11.2783H40.2152C41.2713 11.2783 42.1297 10.4177 42.1297 9.35895C42.1297 8.30023 41.2713 7.43963 40.2152 7.43963H36.3863V11.2783Z" fill="#1976D2"/>
</svg>
