<svg width="24" height="24" viewBox="0 0 24 24" fill="none" xmlns="http://www.w3.org/2000/svg">
<path d="M23.416 13.6687C23.1705 13.6073 22.925 13.6687 22.7101 13.8222C21.9122 14.4973 20.9915 15.0497 19.9788 15.418C19.0274 15.7863 17.984 15.9704 16.8791 15.9704C14.3933 15.9704 12.1223 14.9577 10.4958 13.3311C8.86922 11.7046 7.85648 9.43358 7.85648 6.94774C7.85648 5.9043 8.04061 4.89155 8.34751 3.97087C8.68509 2.98881 9.17612 2.09882 9.82059 1.33159C10.0968 0.994006 10.0354 0.502976 9.69784 0.226772C9.48301 0.0733252 9.2375 0.0119465 8.99198 0.0733252C6.38339 0.779181 4.11237 2.34434 2.48584 4.43121C0.920681 6.4874 0 9.03462 0 11.7967C0 15.1418 1.35033 18.18 3.55997 20.3897C5.7696 22.5993 8.77716 23.9496 12.153 23.9496C14.9764 23.9496 17.585 22.9676 19.6719 21.3411C21.7894 19.6838 23.3239 17.3207 23.9684 14.6201C24.0911 14.1904 23.8456 13.7608 23.416 13.6687Z" fill="#808080"/>
</svg>
