<svg width="137" height="49" viewBox="0 0 137 49" fill="none" xmlns="http://www.w3.org/2000/svg">
<path d="M125.723 33.9473C125.662 34.0093 125.587 34.0404 125.497 34.0404C125.408 34.0404 125.333 34.0093 125.272 33.9473C125.21 33.8852 125.18 33.809 125.18 33.7188V29.944C125.18 29.8594 125.208 29.7888 125.263 29.7324C125.325 29.6704 125.397 29.6393 125.481 29.6393C125.564 29.6393 125.637 29.6704 125.698 29.7324C125.759 29.7888 125.79 29.8594 125.79 29.944V30.291C125.79 30.2967 125.793 30.2995 125.798 30.2995C125.804 30.2995 125.81 30.2967 125.815 30.291C126.216 29.8001 126.693 29.5547 127.245 29.5547C127.752 29.5547 128.12 29.6986 128.348 29.9863C128.577 30.2741 128.691 30.7509 128.691 31.4167V33.7188C128.691 33.809 128.66 33.8852 128.599 33.9473C128.543 34.0093 128.471 34.0404 128.382 34.0404C128.293 34.0404 128.217 34.0093 128.156 33.9473C128.095 33.8852 128.064 33.809 128.064 33.7188V31.5013C128.064 30.9427 127.989 30.5647 127.838 30.3672C127.688 30.1641 127.434 30.0625 127.078 30.0625C126.788 30.0625 126.506 30.2007 126.233 30.4772C125.96 30.748 125.823 31.0273 125.823 31.3151V33.7188C125.823 33.809 125.79 33.8852 125.723 33.9473Z" fill="#50575D"/>
<path d="M131.537 30.0456C130.763 30.0456 130.339 30.5111 130.267 31.4421C130.267 31.4872 130.292 31.5098 130.342 31.5098H132.591C132.635 31.5098 132.658 31.4872 132.658 31.4421C132.624 30.5111 132.251 30.0456 131.537 30.0456ZM131.713 34.125C131.027 34.125 130.506 33.936 130.149 33.5579C129.793 33.1743 129.614 32.6016 129.614 31.8398C129.614 31.0556 129.784 30.48 130.124 30.1133C130.47 29.7409 130.941 29.5547 131.537 29.5547C132.635 29.5547 133.218 30.212 133.285 31.5267C133.29 31.6621 133.243 31.7778 133.143 31.8737C133.048 31.964 132.934 32.0091 132.8 32.0091H130.325C130.28 32.0091 130.258 32.0345 130.258 32.0853C130.308 33.1178 130.813 33.6341 131.771 33.6341C132.089 33.6341 132.415 33.5749 132.75 33.4564C132.811 33.4338 132.869 33.4423 132.925 33.4818C132.981 33.5156 133.009 33.5664 133.009 33.6341C133.009 33.826 132.922 33.9444 132.75 33.9896C132.393 34.0799 132.047 34.125 131.713 34.125Z" fill="#50575D"/>
<path d="M133.918 30.3281C133.843 30.3281 133.78 30.3056 133.728 30.2606C133.681 30.21 133.658 30.1481 133.658 30.075C133.658 30.0019 133.681 29.9428 133.728 29.8978C133.78 29.8472 133.843 29.8219 133.918 29.8219H134.54C134.592 29.8219 134.618 29.7966 134.618 29.7459V28.5394C134.618 28.4494 134.649 28.3734 134.713 28.3116C134.777 28.2497 134.855 28.2188 134.947 28.2188C135.039 28.2188 135.117 28.2497 135.181 28.3116C135.245 28.3734 135.276 28.4494 135.276 28.5394V29.7459C135.276 29.7966 135.302 29.8219 135.354 29.8219H136.654C136.73 29.8219 136.79 29.8472 136.836 29.8978C136.889 29.9428 136.915 30.0019 136.915 30.075C136.915 30.1481 136.889 30.21 136.836 30.2606C136.79 30.3056 136.73 30.3281 136.654 30.3281H135.354C135.302 30.3281 135.276 30.3534 135.276 30.4041V32.6316C135.276 33.0366 135.331 33.3037 135.441 33.4331C135.551 33.5569 135.762 33.6188 136.074 33.6188C136.259 33.6188 136.412 33.6047 136.533 33.5766C136.597 33.5653 136.654 33.5794 136.706 33.6188C136.764 33.6525 136.793 33.7003 136.793 33.7622C136.793 33.8409 136.767 33.9113 136.715 33.9731C136.669 34.035 136.608 34.0716 136.533 34.0828C136.383 34.1109 136.192 34.125 135.961 34.125C135.453 34.125 135.1 34.0238 134.904 33.8213C134.713 33.6131 134.618 33.2362 134.618 32.6906V30.4041C134.618 30.3534 134.592 30.3281 134.54 30.3281L133.918 30.3281Z" fill="#50575D"/>
<ellipse cx="124.121" cy="33.5353" rx="0.527496" ry="0.520168" fill="#50575D"/>
<path d="M115.91 15.4219C118.022 15.4219 119.557 15.9976 120.515 17.1491C121.498 18.2761 121.989 20.1504 121.989 22.7719V32.8046C121.989 33.3681 121.78 33.8581 121.362 34.2746C120.945 34.6911 120.454 34.8994 119.889 34.8994H117.273C116.709 34.8994 116.217 34.6911 115.8 34.2746C115.407 33.8581 115.21 33.3681 115.21 32.8046V22.7719C115.21 21.9389 115.088 21.3754 114.842 21.0814C114.596 20.7874 114.154 20.6404 113.516 20.6404C113.025 20.6404 112.558 20.7996 112.116 21.1181C111.698 21.4366 111.49 21.7429 111.49 22.0369V32.8046C111.49 33.3681 111.281 33.8581 110.863 34.2746C110.446 34.6911 109.955 34.8994 109.39 34.8994H106.774C106.209 34.8994 105.718 34.6911 105.301 34.2746C104.908 33.8581 104.711 33.3681 104.711 32.8046V22.7719C104.711 21.9389 104.589 21.3754 104.343 21.0814C104.097 20.7874 103.655 20.6404 103.017 20.6404C102.526 20.6404 102.059 20.7996 101.617 21.1181C101.199 21.4366 100.991 21.7429 100.991 22.0369V32.8046C100.991 33.3681 100.782 33.8581 100.364 34.2746C99.9468 34.6911 99.4556 34.8994 98.8908 34.8994H96.091C95.5262 34.8994 95.035 34.6911 94.6175 34.2746C94.2 33.8581 93.9912 33.3681 93.9912 32.8046V17.8841C93.9912 17.3206 94.2 16.8306 94.6175 16.4141C95.035 15.9976 95.5262 15.7894 96.091 15.7894H98.3382C98.9276 15.7894 99.4311 15.9976 99.8486 16.4141C100.266 16.8061 100.499 17.2961 100.549 17.8841L100.585 18.3251C100.585 18.3496 100.598 18.3619 100.622 18.3619C100.671 18.3619 100.696 18.3496 100.696 18.3251C101.359 17.4186 102.145 16.7081 103.054 16.1936C103.987 15.6791 104.896 15.4219 105.78 15.4219C106.909 15.4219 107.806 15.6179 108.469 16.0099C109.157 16.4019 109.807 17.1124 110.421 18.1414C110.421 18.1659 110.434 18.1781 110.458 18.1781C110.507 18.1781 110.544 18.1659 110.569 18.1414C112.386 16.3284 114.167 15.4219 115.91 15.4219Z" fill="#FF6E30"/>
<g filter="url(#filter0_f)">
<path d="M95.4795 18.375C95.8765 18.375 96.165 18.8406 96.3451 19.7717C96.5297 20.683 96.6221 22.1986 96.6221 24.3184V32.4311C96.6221 32.8868 96.5828 33.283 96.5044 33.6198C96.4259 33.9566 96.3335 34.125 96.2274 34.125H95.7357C95.6295 34.125 95.5372 33.9566 95.4587 33.6198C95.3849 33.283 95.3479 32.8868 95.3479 32.4311V24.3184C95.3479 23.6448 95.3249 23.1892 95.2787 22.9514C95.2325 22.7137 95.1494 22.5948 95.0294 22.5948C94.9371 22.5948 94.8494 22.7236 94.7663 22.9811C94.6878 23.2387 94.6486 23.4863 94.6486 23.7241V32.4311C94.6486 32.8868 94.6093 33.283 94.5308 33.6198C94.4524 33.9566 94.36 34.125 94.2539 34.125H93.7622C93.656 34.125 93.5637 33.9566 93.4852 33.6198C93.4114 33.283 93.3744 32.8868 93.3744 32.4311V24.3184C93.3744 23.6448 93.3514 23.1892 93.3052 22.9514C93.259 22.7137 93.1759 22.5948 93.0559 22.5948C92.9636 22.5948 92.8759 22.7236 92.7928 22.9811C92.7143 23.2387 92.675 23.4863 92.675 23.7241V32.4311C92.675 32.8868 92.6358 33.283 92.5573 33.6198C92.4789 33.9566 92.3865 34.125 92.2803 34.125H91.7541C91.6479 34.125 91.5556 33.9566 91.4771 33.6198C91.3986 33.283 91.3594 32.8868 91.3594 32.4311V20.366C91.3594 19.9104 91.3986 19.5142 91.4771 19.1774C91.5556 18.8406 91.6479 18.6722 91.7541 18.6722H92.1765C92.2873 18.6722 92.3819 18.8406 92.4604 19.1774C92.5389 19.4943 92.5827 19.8906 92.592 20.366L92.5989 20.7226C92.5989 20.7425 92.6012 20.7524 92.6058 20.7524C92.615 20.7524 92.6197 20.7425 92.6197 20.7226C92.7443 19.9896 92.892 19.4151 93.0628 18.9991C93.2382 18.583 93.4091 18.375 93.5752 18.375C93.7876 18.375 93.9561 18.5335 94.0807 18.8505C94.21 19.1675 94.3323 19.742 94.4477 20.5741C94.4477 20.5939 94.4501 20.6038 94.4547 20.6038C94.4639 20.6038 94.4708 20.5939 94.4754 20.5741C94.8171 19.108 95.1517 18.375 95.4795 18.375Z" fill="black"/>
</g>
<path d="M89.2677 14.9219C87.4628 14.9219 85.6818 15.8014 83.9295 17.4426C83.3675 16.5987 82.7539 15.9641 82.0773 15.5774C81.3098 15.1249 80.3155 14.9219 79.1371 14.9219C78.1528 14.9219 77.1617 15.2088 76.1696 15.7558L76.1696 15.7557L76.1646 15.7585C75.472 16.1507 74.8484 16.6479 74.2937 17.2469C74.1586 16.7929 73.9116 16.3925 73.5538 16.0548C73.0435 15.5484 72.415 15.2894 71.6956 15.2894H69.4484C68.7448 15.2894 68.1284 15.5547 67.6218 16.0601C67.1151 16.5656 66.8486 17.1811 66.8486 17.8841V32.8046C66.8486 33.5077 67.1151 34.1232 67.6218 34.6286C68.1284 35.134 68.7448 35.3994 69.4484 35.3994H72.2482C72.9518 35.3994 73.5682 35.134 74.0749 34.6286C74.5815 34.1232 74.848 33.5077 74.848 32.8046V22.0369C74.848 21.9875 74.8903 21.8124 75.2721 21.5198C75.6369 21.2584 76.0012 21.1404 76.3741 21.1404C76.9606 21.1404 77.214 21.2791 77.3166 21.4019C77.3682 21.4636 77.4359 21.5915 77.4881 21.831C77.5393 22.0661 77.5687 22.3769 77.5687 22.7719V32.8046C77.5687 33.498 77.8155 34.1101 78.2945 34.6177L78.2997 34.6233L78.305 34.6286C78.8117 35.134 79.4281 35.3994 80.1317 35.3994H82.7473C83.4509 35.3994 84.0673 35.134 84.5739 34.6286C85.0806 34.1232 85.3471 33.5077 85.3471 32.8046V22.0369C85.3471 21.9875 85.3894 21.8124 85.7712 21.5198C86.136 21.2584 86.5002 21.1404 86.8732 21.1404C87.4597 21.1404 87.7131 21.2791 87.8157 21.4019L88.1994 21.0814L87.8157 21.4019C87.8672 21.4636 87.935 21.5915 87.9872 21.831C88.0384 22.0661 88.0678 22.3769 88.0678 22.7719V32.8046C88.0678 33.498 88.3146 34.1101 88.7935 34.6177L88.7987 34.6233L88.8041 34.6286C89.3107 35.134 89.9272 35.3994 90.6308 35.3994H93.2463C93.95 35.3994 94.5664 35.134 95.073 34.6286C95.5797 34.1232 95.8461 33.5077 95.8461 32.8046V22.7719C95.8461 20.1151 95.3536 18.0905 94.2533 16.8249C93.166 15.5211 91.4623 14.9219 89.2677 14.9219Z" fill="#FF6E30" stroke="white"/>
<g filter="url(#filter1_f)">
<path d="M67.5517 20.3453L66.7008 33.0005C66.6957 33.0763 66.7559 33.1406 66.8319 33.1406C66.8582 33.1406 66.884 33.1327 66.9058 33.1179L67.9309 32.4201C68.3669 32.1233 68.7425 31.7462 69.0375 31.3089L69.144 31.1512C69.4959 30.6297 69.7492 30.048 69.8914 29.4351L70.0322 28.8281C70.1565 28.2924 70.2286 27.7458 70.2475 27.1961L70.2737 26.4336C70.2975 25.7397 70.2561 25.0451 70.15 24.3589L70.1082 24.0886C70.0016 23.3992 69.8133 22.7249 69.5473 22.0799L69.2045 21.2485C69.0975 20.9892 68.9524 20.7473 68.7739 20.5309L68.3967 20.0735C68.3461 20.0121 68.2809 19.9643 68.2072 19.9345C67.9058 19.8128 67.5735 20.021 67.5517 20.3453Z" fill="#212121"/>
</g>
<path d="M52.1361 32.7492L52.1401 32.7563L52.1443 32.7632C52.5392 33.4104 53.0748 33.8793 53.7494 34.1434C55.6334 34.9049 57.7235 35.2812 60.0126 35.2812C63.5625 35.2812 66.3167 34.6002 68.192 33.1562C70.092 31.693 71.0117 29.5084 71.0117 26.6962C71.0117 24.2664 70.3033 22.2703 68.8449 20.7626C67.402 19.2709 64.9049 18.0406 61.4435 17.0292C60.6698 16.7986 60.142 16.4963 59.8116 16.152C59.4926 15.8195 59.3338 15.4241 59.3338 14.9363C59.3338 14.3754 59.5256 14.0176 59.8739 13.7761C60.2554 13.5115 60.89 13.3415 61.8545 13.3415C63.5812 13.3415 65.5158 13.6836 67.663 14.3812C68.2865 14.5973 68.8954 14.5402 69.4314 14.1726L69.4315 14.1726L69.4365 14.1691C69.9804 13.7861 70.2749 13.2449 70.2749 12.5842V10.7835C70.2749 10.0447 70.0595 9.36855 69.6321 8.76966C69.2031 8.14401 68.6316 7.71593 67.9253 7.51041L67.9253 7.51038L67.9201 7.50893C66.0256 6.97975 63.8792 6.71875 61.4862 6.71875C58.1351 6.71875 55.4905 7.41598 53.625 8.8838L53.625 8.88379L53.6223 8.88595C51.7724 10.3623 50.8555 12.3991 50.8555 14.9363C50.8555 17.283 51.6096 19.2824 53.1274 20.901L53.1273 20.9011L53.1331 20.907C54.6664 22.4884 57.1155 23.7694 60.4147 24.7843C61.301 25.0714 61.825 25.37 62.0788 25.6413C62.3086 25.887 62.4597 26.2741 62.4597 26.88C62.4597 27.4688 62.2504 27.8538 61.8539 28.1174C61.4216 28.405 60.7098 28.585 59.6442 28.585C57.8354 28.585 55.9917 28.1519 54.109 27.2723C53.5497 27.01 52.9743 27.0244 52.437 27.326L52.6817 27.762L52.437 27.326C52.1729 27.4741 51.9549 27.6757 51.8057 27.9361C51.657 28.1957 51.5922 28.4866 51.5922 28.791V30.6652C51.5922 31.4112 51.7733 32.1089 52.1361 32.7492Z" fill="#FF6E30" stroke="white"/>
<g filter="url(#filter2_f)">
<path d="M53.223 15.8094C53.4465 15.749 53.6408 15.8224 53.8059 16.0298C53.9723 16.2314 54.1281 16.5994 54.2733 17.1339L54.8289 19.1791C54.8601 19.294 54.8652 19.3999 54.844 19.4967C54.8229 19.5936 54.7825 19.6501 54.7227 19.6663L54.4459 19.7411C54.3861 19.7573 54.3226 19.7289 54.2554 19.6559C54.1907 19.5822 54.1428 19.488 54.1116 19.3731L53.5559 17.3278C53.5098 17.158 53.4656 17.0466 53.4233 16.9937C53.3811 16.9408 53.3261 16.9235 53.2586 16.9418C53.2066 16.9558 53.166 17.0016 53.1369 17.0792C53.1103 17.1561 53.1052 17.2245 53.1215 17.2844L53.7178 19.4795C53.749 19.5944 53.7541 19.7003 53.733 19.7971C53.7118 19.894 53.6714 19.9505 53.6116 19.9667L53.3348 20.0415C53.275 20.0577 53.2115 20.0292 53.1443 19.9563C53.0796 19.8826 53.0317 19.7884 53.0005 19.6735L52.4449 17.6282C52.3987 17.4584 52.3545 17.347 52.3122 17.2941C52.27 17.2412 52.2151 17.2239 52.1475 17.2421C52.0955 17.2562 52.0549 17.302 52.0258 17.3796C51.9992 17.4565 51.9941 17.5249 52.0104 17.5848L52.6067 19.7799C52.6379 19.8948 52.643 20.0007 52.6219 20.0975C52.6008 20.1944 52.5603 20.2509 52.5005 20.267L52.2042 20.3471C52.1445 20.3633 52.081 20.3349 52.0137 20.2619C51.9465 20.189 51.8972 20.0951 51.866 19.9802L51.0397 16.9385C51.0085 16.8236 51.0034 16.7177 51.0245 16.6209C51.0457 16.524 51.0861 16.4675 51.1459 16.4514L51.3837 16.3871C51.4461 16.3702 51.5109 16.3983 51.5781 16.4712C51.644 16.5392 51.6959 16.6324 51.7336 16.7509L51.7619 16.8397C51.7633 16.8447 51.7653 16.8469 51.7679 16.8462C51.7731 16.8447 51.775 16.8415 51.7736 16.8366C51.7936 16.6328 51.8374 16.4655 51.9051 16.3346C51.9754 16.203 52.0573 16.1245 52.1509 16.0992C52.2704 16.0669 52.3761 16.0812 52.468 16.1422C52.5625 16.2024 52.6707 16.3286 52.7927 16.5208C52.794 16.5258 52.796 16.528 52.7986 16.5273C52.8038 16.5259 52.807 16.5223 52.8083 16.5166C52.9002 16.095 53.0384 15.8593 53.223 15.8094Z" fill="black"/>
</g>
<g filter="url(#filter3_f)">
<path d="M53.4349 30.1585C53.6584 30.0981 53.8392 30.1219 53.9774 30.2299C54.1173 30.3343 54.2292 30.5407 54.313 30.849L54.6335 32.029C54.6515 32.0953 54.6451 32.1589 54.6142 32.2198C54.5833 32.2808 54.538 32.3193 54.4782 32.3355L54.2014 32.4103C54.1417 32.4265 54.083 32.416 54.0255 32.379C53.9706 32.3412 53.9342 32.2892 53.9162 32.223L53.5956 31.043C53.569 30.945 53.538 30.8823 53.5026 30.8547C53.4673 30.8272 53.4158 30.8225 53.3482 30.8408C53.2962 30.8548 53.2519 30.8869 53.2153 30.937C53.1813 30.9864 53.169 31.0284 53.1784 31.063L53.5224 32.3294C53.5404 32.3957 53.534 32.4593 53.5031 32.5202C53.4723 32.5811 53.4269 32.6197 53.3672 32.6358L53.0904 32.7107C53.0306 32.7268 52.9719 32.7164 52.9145 32.6794C52.8596 32.6416 52.8231 32.5896 52.8051 32.5233L52.4846 31.3434C52.4579 31.2454 52.4269 31.1826 52.3916 31.1551C52.3562 31.1275 52.3047 31.1229 52.2371 31.1412C52.1851 31.1552 52.1408 31.1873 52.1042 31.2374C52.0702 31.2868 52.0579 31.3288 52.0673 31.3634L52.4114 32.6298C52.4294 32.6961 52.4229 32.7597 52.392 32.8206C52.3612 32.8815 52.3158 32.9201 52.2561 32.9362L51.9598 33.0163C51.9 33.0325 51.8414 33.0221 51.7839 32.985C51.7264 32.948 51.6886 32.8963 51.6706 32.8301L51.1939 31.0752C51.1759 31.009 51.1823 30.9454 51.2132 30.8844C51.2441 30.8235 51.2894 30.7849 51.3492 30.7688L51.587 30.7045C51.6494 30.6876 51.7093 30.6977 51.7668 30.7348C51.8235 30.7689 51.8639 30.8199 51.8878 30.8876L51.9058 30.9384C51.9066 30.9413 51.9083 30.9424 51.9109 30.9417C51.9161 30.9403 51.9183 30.9382 51.9175 30.9353C51.9587 30.8097 52.0192 30.7036 52.0989 30.6171C52.1813 30.5299 52.2692 30.4737 52.3628 30.4484C52.4823 30.416 52.5835 30.4134 52.6662 30.4406C52.7514 30.467 52.843 30.5319 52.9409 30.6354C52.9417 30.6383 52.9434 30.6394 52.946 30.6387C52.9511 30.6373 52.9547 30.6348 52.9565 30.6312C53.0909 30.366 53.2503 30.2084 53.4349 30.1585Z" fill="black"/>
</g>
<path d="M50.8353 29.1622L50.8319 29.1628C50.3554 29.2341 49.9642 29.2675 49.6534 29.2675C48.8127 29.2675 48.5045 29.0778 48.4113 28.9384C48.3566 28.8566 48.2749 28.6344 48.2149 28.1853C48.1576 27.7568 48.1272 27.1841 48.1272 26.46V21.4475H51.2374C51.9411 21.4475 52.5575 21.1822 53.0641 20.6767C53.5708 20.1713 53.8373 19.5558 53.8373 18.8528V18.2648C53.8373 17.5617 53.5708 16.9462 53.0641 16.4408C52.5575 15.9354 51.9411 15.67 51.2374 15.67H48.1272V11.2823C48.1272 10.5792 47.8608 9.96371 47.3541 9.45827C46.8475 8.95285 46.231 8.6875 45.5274 8.6875H42.7277C42.024 8.6875 41.4076 8.95285 40.901 9.45827C40.3943 9.96371 40.1278 10.5792 40.1278 11.2823V15.67H38.8596C38.156 15.67 37.5395 15.9354 37.0329 16.4408C36.5262 16.9462 36.2598 17.5617 36.2598 18.2648V18.8528C36.2598 19.5558 36.5262 20.1713 37.0329 20.6767C37.5395 21.1822 38.156 21.4475 38.8596 21.4475H40.1278V27.195C40.1278 30.1166 40.6675 32.2953 41.8879 33.5681C43.11 34.8427 45.1355 35.4125 47.8114 35.4125C49.0522 35.4125 50.1197 35.3508 51.0092 35.2243C51.7261 35.1338 52.3217 34.7983 52.7705 34.2318C53.232 33.6558 53.4689 32.9953 53.4689 32.2665V31.311C53.4689 30.6302 53.1662 30.0704 52.6109 29.6652C52.0924 29.2441 51.4905 29.0689 50.8353 29.1622Z" fill="#1E252B" stroke="white"/>
<g filter="url(#filter4_f)">
<path d="M40.7055 16.2287C41.0833 16.1265 41.4445 16.3715 41.7893 16.9634C42.1347 17.5406 42.5048 18.5558 42.8995 20.0089L44.4103 25.5702C44.4952 25.8825 44.5316 26.1642 44.5197 26.4153C44.5077 26.6664 44.4512 26.8055 44.3502 26.8329L43.8824 26.9593C43.7814 26.9866 43.6622 26.895 43.5248 26.6843C43.3918 26.4724 43.2828 26.2103 43.198 25.8979L41.6872 20.3367C41.5617 19.875 41.4549 19.5685 41.3667 19.4174C41.2785 19.2664 41.1773 19.2062 41.0631 19.2371C40.9753 19.2609 40.9158 19.3717 40.8847 19.5696C40.858 19.7664 40.8667 19.9462 40.911 20.1092L42.5325 26.0779C42.6174 26.3902 42.6538 26.6719 42.6419 26.923C42.6299 27.174 42.5734 27.3132 42.4724 27.3405L42.0046 27.467C41.9035 27.4943 41.7843 27.4026 41.6469 27.192C41.5139 26.9801 41.405 26.718 41.3201 26.4056L39.8093 20.8444C39.6839 20.3826 39.5771 20.0762 39.4889 19.9251C39.4007 19.774 39.2995 19.7139 39.1853 19.7448C39.0974 19.7686 39.0379 19.8794 39.0068 20.0773C38.9801 20.2741 38.9889 20.4539 39.0332 20.6169L40.6547 26.5856C40.7395 26.8979 40.776 27.1796 40.764 27.4307C40.7521 27.6817 40.6956 27.8209 40.5945 27.8482L40.0938 27.9836C39.9928 28.0109 39.8735 27.9192 39.7362 27.7086C39.5988 27.4979 39.4876 27.2364 39.4028 26.924L37.1559 18.6534C37.0711 18.3411 37.0346 18.0594 37.0466 17.8083C37.0585 17.5572 37.115 17.4181 37.2161 17.3907L37.618 17.2821C37.7234 17.2536 37.8448 17.3447 37.9822 17.5554C38.1159 17.7525 38.2314 18.0128 38.3288 18.3363L38.4018 18.579C38.4054 18.5926 38.4095 18.5988 38.4139 18.5976C38.4227 18.5952 38.4252 18.5872 38.4215 18.5737C38.4036 18.0391 38.4372 17.6073 38.5222 17.2781C38.6117 16.9478 38.7355 16.7613 38.8936 16.7185C39.0957 16.6639 39.2855 16.7292 39.4631 16.9144C39.6452 17.0985 39.8686 17.4608 40.1333 18.0015C40.137 18.0151 40.1411 18.0213 40.1454 18.0201C40.1542 18.0178 40.159 18.0092 40.1597 17.9944C40.2117 16.9016 40.3937 16.313 40.7055 16.2287Z" fill="black"/>
</g>
<path d="M33.8885 20.7574L33.8884 20.7575L33.8977 20.7673C34.2175 21.1032 34.4459 21.7054 34.4906 22.6788H29.7039C29.8362 21.6912 30.0977 21.0913 30.4132 20.7765C30.7797 20.4109 31.3568 20.1875 32.2336 20.1875C33.0561 20.1875 33.5729 20.4076 33.8885 20.7574ZM41.9433 24.9428L41.9433 24.9409C41.9308 21.5869 41.1248 18.9792 39.4382 17.2109C37.7471 15.4379 35.2524 14.5938 32.0494 14.5938C28.7917 14.5938 26.2256 15.4775 24.4339 17.3174C22.6461 19.1533 21.7871 21.7453 21.7871 25.0163C21.7871 28.326 22.753 30.9376 24.7486 32.7712L24.7485 32.7712L24.7536 32.7758C26.7658 34.5746 29.5905 35.4388 33.1546 35.4388C34.8754 35.4388 36.502 35.2897 38.0331 34.9897C38.7488 34.8689 39.3371 34.5046 39.7788 33.9178C40.2335 33.3218 40.4698 32.6533 40.4698 31.9252V31.3373C40.4698 30.6502 40.1945 30.0745 39.6539 29.659C39.1222 29.2253 38.5016 29.0763 37.8366 29.2318C36.41 29.5209 35.22 29.6613 34.2597 29.6613C32.6902 29.6613 31.6155 29.4535 30.9662 29.0995C30.4445 28.8035 30.0602 28.3046 29.8432 27.5375H39.1961C39.9271 27.5375 40.5746 27.3001 41.1119 26.8236L41.1176 26.8186L41.1231 26.8134C41.6617 26.306 41.9433 25.6736 41.9433 24.9428ZM29.772 27.2451C29.7721 27.2451 29.7724 27.2468 29.7726 27.2499C29.772 27.2466 29.7719 27.245 29.772 27.2451ZM29.5369 27.5376C29.5348 27.5379 29.5337 27.5379 29.5336 27.5379L29.5369 27.5376Z" fill="#1E252B" stroke="white"/>
<g filter="url(#filter5_f)">
<path d="M25.3493 18.375C25.7711 18.375 26.0777 18.7921 26.269 19.6262C26.4652 20.4426 26.5633 21.8003 26.5633 23.6993V30.967C26.5633 31.3751 26.5216 31.7301 26.4382 32.0318C26.3548 32.3335 26.2567 32.4844 26.1439 32.4844H25.6215C25.5087 32.4844 25.4106 32.3335 25.3273 32.0318C25.2488 31.7301 25.2095 31.3751 25.2095 30.967V23.6993C25.2095 23.0959 25.185 22.6877 25.136 22.4747C25.0869 22.2617 24.9986 22.1552 24.8711 22.1552C24.773 22.1552 24.6798 22.2706 24.5915 22.5013C24.5081 22.732 24.4664 22.9539 24.4664 23.1669V30.967C24.4664 31.3751 24.4247 31.7301 24.3414 32.0318C24.258 32.3335 24.1599 32.4844 24.0471 32.4844H23.5247C23.4119 32.4844 23.3138 32.3335 23.2304 32.0318C23.1519 31.7301 23.1127 31.3751 23.1127 30.967V23.6993C23.1127 23.0959 23.0882 22.6877 23.0391 22.4747C22.9901 22.2617 22.9018 22.1552 22.7742 22.1552C22.6761 22.1552 22.5829 22.2706 22.4947 22.5013C22.4113 22.732 22.3696 22.9539 22.3696 23.1669V30.967C22.3696 31.3751 22.3279 31.7301 22.2445 32.0318C22.1611 32.3335 22.063 32.4844 21.9502 32.4844H21.3911C21.2782 32.4844 21.1801 32.3335 21.0968 32.0318C21.0134 31.7301 20.9717 31.3751 20.9717 30.967V20.1586C20.9717 19.7504 21.0134 19.3955 21.0968 19.0938C21.1801 18.7921 21.2782 18.6412 21.3911 18.6412H21.8399C21.9576 18.6412 22.0581 18.7921 22.1415 19.0938C22.2249 19.3777 22.2715 19.7327 22.2813 20.1586L22.2887 20.4781C22.2887 20.4958 22.2911 20.5047 22.296 20.5047C22.3058 20.5047 22.3107 20.4958 22.3107 20.4781C22.4432 19.8214 22.6001 19.3067 22.7816 18.9341C22.968 18.5613 23.1495 18.375 23.326 18.375C23.5517 18.375 23.7307 18.517 23.8631 18.8009C24.0005 19.0849 24.1305 19.5996 24.2531 20.345C24.2531 20.3627 24.2555 20.3716 24.2604 20.3716C24.2702 20.3716 24.2776 20.3627 24.2825 20.345C24.6455 19.0317 25.0011 18.375 25.3493 18.375Z" fill="black"/>
</g>
<path d="M4.64609 31.539L4.64607 31.539L4.64968 31.5424C7.29266 34.051 10.8405 35.2812 15.2351 35.2812C17.8272 35.2812 20.2878 34.9829 22.6152 34.3839C23.3178 34.2083 23.8865 33.8214 24.3001 33.233C24.7288 32.6334 24.9448 31.9564 24.9448 31.2165V19.971C24.9448 19.2679 24.6783 18.6525 24.1717 18.147C23.665 17.6416 23.0486 17.3763 22.345 17.3763H14.7562C14.0526 17.3763 13.4361 17.6416 12.9295 18.147C12.4228 18.6525 12.1564 19.2679 12.1564 19.971V21.294C12.1564 21.9971 12.4228 22.6125 12.9295 23.118C13.4361 23.6234 14.0526 23.8888 14.7562 23.8888H16.9454V28.3163C16.4575 28.4233 16.0107 28.4748 15.6035 28.4748C13.4119 28.4748 11.8477 27.8661 10.8166 26.728C9.78367 25.588 9.21462 23.7161 9.21462 21C9.21462 18.3141 9.80577 16.457 10.8832 15.3163L10.8832 15.3164L10.8864 15.3129C11.9597 14.1548 13.6785 13.5252 16.1561 13.5252C17.6109 13.5252 19.1819 13.7156 20.8708 14.1007L20.8797 14.1028L20.8886 14.1045C21.5402 14.2283 22.1432 14.0871 22.6541 13.6756C23.1888 13.2652 23.4713 12.7047 23.4713 12.033V10.2322C23.4713 9.50291 23.234 8.84197 22.7719 8.26569C22.3063 7.68507 21.7077 7.32255 20.9903 7.20327L20.9903 7.20326L20.9883 7.20294C18.9996 6.88055 17.0817 6.71875 15.2351 6.71875C10.675 6.71875 7.08201 7.95797 4.53115 10.5021C1.9808 13.0212 0.736328 16.5446 0.736328 21C0.736328 25.4604 2.02061 28.9969 4.64609 31.539Z" fill="#1E252B" stroke="white"/>
<defs>
<filter id="filter0_f" x="77.3594" y="4.375" width="33.2627" height="43.75" filterUnits="userSpaceOnUse" color-interpolation-filters="sRGB">
<feFlood flood-opacity="0" result="BackgroundImageFix"/>
<feBlend mode="normal" in="SourceGraphic" in2="BackgroundImageFix" result="shape"/>
<feGaussianBlur stdDeviation="7" result="effect1_foregroundBlur"/>
</filter>
<filter id="filter1_f" x="52.7002" y="5.89941" width="31.5797" height="41.2413" filterUnits="userSpaceOnUse" color-interpolation-filters="sRGB">
<feFlood flood-opacity="0" result="BackgroundImageFix"/>
<feBlend mode="normal" in="SourceGraphic" in2="BackgroundImageFix" result="shape"/>
<feGaussianBlur stdDeviation="7" result="effect1_foregroundBlur"/>
</filter>
<filter id="filter2_f" x="37.0117" y="1.78906" width="31.8451" height="32.5626" filterUnits="userSpaceOnUse" color-interpolation-filters="sRGB">
<feFlood flood-opacity="0" result="BackgroundImageFix"/>
<feBlend mode="normal" in="SourceGraphic" in2="BackgroundImageFix" result="shape"/>
<feGaussianBlur stdDeviation="7" result="effect1_foregroundBlur"/>
</filter>
<filter id="filter3_f" x="37.1836" y="16.126" width="31.4595" height="30.8977" filterUnits="userSpaceOnUse" color-interpolation-filters="sRGB">
<feFlood flood-opacity="0" result="BackgroundImageFix"/>
<feBlend mode="normal" in="SourceGraphic" in2="BackgroundImageFix" result="shape"/>
<feGaussianBlur stdDeviation="7" result="effect1_foregroundBlur"/>
</filter>
<filter id="filter4_f" x="23.0439" y="2.20605" width="35.4775" height="39.7822" filterUnits="userSpaceOnUse" color-interpolation-filters="sRGB">
<feFlood flood-opacity="0" result="BackgroundImageFix"/>
<feBlend mode="normal" in="SourceGraphic" in2="BackgroundImageFix" result="shape"/>
<feGaussianBlur stdDeviation="7" result="effect1_foregroundBlur"/>
</filter>
<filter id="filter5_f" x="6.97168" y="4.375" width="33.5916" height="42.1094" filterUnits="userSpaceOnUse" color-interpolation-filters="sRGB">
<feFlood flood-opacity="0" result="BackgroundImageFix"/>
<feBlend mode="normal" in="SourceGraphic" in2="BackgroundImageFix" result="shape"/>
<feGaussianBlur stdDeviation="7" result="effect1_foregroundBlur"/>
</filter>
</defs>
</svg>
