<svg width="56" height="56" viewBox="0 0 56 56" fill="none" xmlns="http://www.w3.org/2000/svg">
<rect width="56" height="56" rx="12" fill="#F4F4F4"/>
<path d="M38.0154 18.4661H41.485L39.252 14.638L35.2643 13.5215L30.4792 15.4355L17.7188 32.1836L27.1063 30.7328C31.8005 30.0073 35.2643 25.9671 35.2643 21.2172C35.2643 19.6978 36.496 18.4661 38.0154 18.4661Z" fill="#FF6E30"/>
<path fill-rule="evenodd" clip-rule="evenodd" d="M31.0059 18.2409C32.098 16.8276 33.7834 16 35.5695 16H36.8596C38.0454 16 39.0067 16.9613 39.0067 18.1471V25.4227C39.0067 26.8585 38.6017 28.2652 37.8382 29.4811C36.4419 31.7049 34.0005 33.0547 31.3747 33.0547H23.6116C21.1268 33.0547 19.8824 36.059 21.6394 37.816L25.3965 41.5731C26.1776 42.3541 27.4439 42.3541 28.225 41.5731C29.006 40.792 29.006 39.5257 28.225 38.7447L26.535 37.0547H26.7817C26.7981 37.0723 26.8149 37.0897 26.8321 37.1069L30.9792 41.254C31.7603 42.0351 33.0266 42.0351 33.8076 41.254C34.5887 40.473 34.5887 39.2066 33.8076 38.4256L32.3923 37.0102C36.0001 36.6939 39.2792 34.7082 41.2257 31.6082C42.3894 29.7549 43.0067 27.611 43.0067 25.4227V20.1471H45.6324C46.737 20.1471 47.6324 19.2517 47.6324 18.1471C47.6324 17.0426 46.737 16.1471 45.6324 16.1471H42.674C41.8442 13.734 39.5544 12 36.8596 12H35.5695C32.5446 12 29.6903 13.4016 27.8407 15.7952L8.48012 40.85C7.80474 41.7241 7.96577 42.9801 8.8398 43.6555C9.71383 44.3309 10.9699 44.1699 11.6453 43.2958L31.0059 18.2409Z" fill="#1E252B"/>
<path d="M31.0059 18.2409L31.4015 18.5467V18.5467L31.0059 18.2409ZM37.8382 29.4811L37.4147 29.2153L37.8382 29.4811ZM21.6394 37.816L21.993 37.4624H21.993L21.6394 37.816ZM25.3965 41.5731L25.043 41.9266L25.3965 41.5731ZM26.535 37.0547V36.5547H25.3279L26.1815 37.4083L26.535 37.0547ZM26.7817 37.0547L27.1476 36.714L26.9993 36.5547H26.7817V37.0547ZM33.8076 41.254L33.4541 40.9005L33.8076 41.254ZM33.8076 38.4256L33.4541 38.7792L33.8076 38.4256ZM32.3923 37.0102L32.3486 36.5121L31.2807 36.6058L32.0387 37.3638L32.3923 37.0102ZM41.2257 31.6082L41.6492 31.8741L41.2257 31.6082ZM43.0067 20.1471V19.6471H42.5067V20.1471H43.0067ZM42.674 16.1471L42.2012 16.3097L42.3172 16.6471H42.674V16.1471ZM27.8407 15.7952L28.2364 16.1009L27.8407 15.7952ZM8.48012 40.85L8.87577 41.1558L8.48012 40.85ZM8.8398 43.6555L8.53407 44.0512L8.8398 43.6555ZM11.6453 43.2958L12.0409 43.6016L11.6453 43.2958ZM35.5695 15.5C33.6285 15.5 31.797 16.3993 30.6102 17.9352L31.4015 18.5467C32.399 17.2558 33.9382 16.5 35.5695 16.5V15.5ZM36.8596 15.5H35.5695V16.5H36.8596V15.5ZM39.5067 18.1471C39.5067 16.6852 38.3216 15.5 36.8596 15.5V16.5C37.7693 16.5 38.5067 17.2374 38.5067 18.1471H39.5067ZM39.5067 25.4227V18.1471H38.5067V25.4227H39.5067ZM38.2616 29.747C39.0752 28.4514 39.5067 26.9525 39.5067 25.4227H38.5067C38.5067 26.7644 38.1282 28.0789 37.4147 29.2153L38.2616 29.747ZM31.3747 33.5547C34.1725 33.5547 36.7738 32.1165 38.2616 29.747L37.4147 29.2153C36.1099 31.2933 33.8284 32.5547 31.3747 32.5547V33.5547ZM23.6116 33.5547H31.3747V32.5547H23.6116V33.5547ZM21.993 37.4624C20.551 36.0204 21.5723 33.5547 23.6116 33.5547V32.5547C20.6814 32.5547 19.2139 36.0975 21.2859 38.1696L21.993 37.4624ZM25.7501 41.2195L21.993 37.4624L21.2859 38.1696L25.043 41.9266L25.7501 41.2195ZM27.8714 41.2195C27.2856 41.8053 26.3359 41.8053 25.7501 41.2195L25.043 41.9266C26.0193 42.903 27.6022 42.903 28.5785 41.9266L27.8714 41.2195ZM27.8714 39.0982C28.4572 39.684 28.4572 40.6337 27.8714 41.2195L28.5785 41.9266C29.5548 40.9503 29.5548 39.3674 28.5785 38.3911L27.8714 39.0982ZM26.1815 37.4083L27.8714 39.0982L28.5785 38.3911L26.8886 36.7012L26.1815 37.4083ZM26.7817 36.5547H26.535V37.5547H26.7817V36.5547ZM27.1856 36.7533C27.1727 36.7404 27.16 36.7272 27.1476 36.714L26.4158 37.3954C26.4363 37.4174 26.4572 37.4391 26.4785 37.4604L27.1856 36.7533ZM31.3328 40.9005L27.1856 36.7533L26.4785 37.4604L30.6257 41.6076L31.3328 40.9005ZM33.4541 40.9005C32.8683 41.4863 31.9186 41.4863 31.3328 40.9005L30.6257 41.6076C31.602 42.5839 33.1849 42.5839 34.1612 41.6076L33.4541 40.9005ZM33.4541 38.7792C34.0399 39.3649 34.0399 40.3147 33.4541 40.9005L34.1612 41.6076C35.1375 40.6313 35.1375 39.0484 34.1612 38.072L33.4541 38.7792ZM32.0387 37.3638L33.4541 38.7792L34.1612 38.072L32.7458 36.6567L32.0387 37.3638ZM40.8023 31.3423C38.9395 34.3091 35.8013 36.2094 32.3486 36.5121L32.4359 37.5083C36.1989 37.1784 39.619 35.1074 41.6492 31.8741L40.8023 31.3423ZM42.5067 25.4227C42.5067 27.5169 41.916 29.5687 40.8023 31.3423L41.6492 31.8741C42.8629 29.9412 43.5067 27.705 43.5067 25.4227H42.5067ZM42.5067 20.1471V25.4227H43.5067V20.1471H42.5067ZM45.6324 19.6471H43.0067V20.6471H45.6324V19.6471ZM47.1324 18.1471C47.1324 18.9756 46.4608 19.6471 45.6324 19.6471V20.6471C47.0131 20.6471 48.1324 19.5279 48.1324 18.1471H47.1324ZM45.6324 16.6471C46.4608 16.6471 47.1324 17.3187 47.1324 18.1471H48.1324C48.1324 16.7664 47.0131 15.6471 45.6324 15.6471V16.6471ZM42.674 16.6471H45.6324V15.6471H42.674V16.6471ZM36.8596 12.5C39.3344 12.5 41.4386 14.0923 42.2012 16.3097L43.1469 15.9845C42.2497 13.3758 39.7743 11.5 36.8596 11.5V12.5ZM35.5695 12.5H36.8596V11.5H35.5695V12.5ZM28.2364 16.1009C29.9913 13.8298 32.6994 12.5 35.5695 12.5V11.5C32.3897 11.5 29.3894 12.9733 27.4451 15.4894L28.2364 16.1009ZM8.87577 41.1558L28.2364 16.1009L27.4451 15.4894L8.08448 40.5443L8.87577 41.1558ZM9.14552 43.2599C8.49 42.7533 8.36923 41.8113 8.87577 41.1558L8.08448 40.5443C7.24025 41.6369 7.44154 43.2069 8.53407 44.0512L9.14552 43.2599ZM11.2496 42.9901C10.7431 43.6456 9.80104 43.7664 9.14552 43.2599L8.53407 44.0512C9.62661 44.8954 11.1967 44.6941 12.0409 43.6016L11.2496 42.9901ZM30.6102 17.9352L11.2496 42.9901L12.0409 43.6016L31.4015 18.5467L30.6102 17.9352Z" fill="#F4F4F4"/>
<circle cx="36.2214" cy="19.1042" r="0.776043" fill="#1E252B" stroke="#1E252B"/>
</svg>
